<?xml version="1.0" encoding="utf-8"?><svg viewBox="0 0 512 512" xmlns="http://www.w3.org/2000/svg" xmlns:xlink="http://www.w3.org/1999/xlink"><style>:root>svg{display:none}:root>svg:target{display:block}</style><svg aria-hidden="true" data-prefix="fas" data-icon="clock" class="asvg-inline--fa afa-clock afa-w-16" viewBox="0 0 512 512" id="clock" xmlns="http://www.w3.org/2000/svg"><path d="M256 8C119 8 8 119 8 256s111 248 248 248 248-111 248-248S393 8 256 8zm92.49 313l-20 25a16 16 0 01-22.49 2.5l-67-49.72a40 40 0 01-15-31.23V112a16 16 0 0116-16h32a16 16 0 0116 16v144l58 42.5a16 16 0 012.49 22.5z"/></svg><svg viewBox="-909 226 100 100" id="gift" xmlns="http://www.w3.org/2000/svg"><path d="M-812.5 249.8h-26.1c5.7-1.9 10.5-4.4 12.3-7.5l.1-.1c.9-1.8 1.5-4.2-1.2-8.5s-5.2-4.8-6.9-4.8c-7.8 0-19.1 14.4-23.5 20.6l-.2.3h-2.1l-.2-.2c-4.4-6.2-15.6-20.7-23.5-20.7-2.3 0-4.6 1.6-6.7 4.8-.8 1.4-3.2 5.5-1.1 8.6l.2.2c1.9 3.2 6.6 5.6 11.7 7.3h-25.8c-1.4 0-2.5 1.1-2.5 2.5v16.5c0 1.4 1.1 2.5 2.5 2.5h2.8v49.2c0 1.4 1.1 2.5 2.5 2.5h82.4c1.4 0 2.5-1.1 2.5-2.5v-49.2h2.8c1.4 0 2.5-1.1 2.5-2.5v-16.5c0-1.3-1.1-2.5-2.5-2.5zm-21.8-15.8c.3 0 1.2 0 2.7 2.4 1.4 2.3 1.2 3 1 3.5-1.5 2.5-8.9 5.7-19.4 7.7 7.3-9.3 13.1-13.6 15.7-13.6zm-52.9 5.9l-.2-.3-.1-.1c0-.3.1-1.2 1.2-3.1 1.3-2 2.2-2.4 2.4-2.4 2.6 0 8.4 4.3 15.8 13.8-11-2.2-17.8-5.4-19.1-7.9zm-15.8 26v-10.5c0-.3.2-.5.5-.5h41v11.5h-41c-.3 0-.5-.2-.5-.5zm5.3 5.5h36.2v46.7h-36.2v-46.7zm77.4 46.7h-36.2v-46.7h36.2v46.7zm4.8-51.7h-41.1v-11.5h41.1c.3 0 .5.2.5.5v10.5c0 .3-.2.5-.5.5z"/></svg><svg aria-hidden="true" data-prefix="fas" data-icon="envelope" class="csvg-inline--fa cfa-envelope cfa-w-16" viewBox="0 0 512 512" id="mail" xmlns="http://www.w3.org/2000/svg"><path d="M502.3 190.8c3.9-3.1 9.7-.2 9.7 4.7V400c0 26.5-21.5 48-48 48H48c-26.5 0-48-21.5-48-48V195.6c0-5 5.7-7.8 9.7-4.7 22.4 17.4 52.1 39.5 154.1 113.6 21.1 15.4 56.7 47.8 92.2 47.6 35.7.3 72-32.8 92.3-47.6 102-74.1 131.6-96.3 154-113.7zM256 320c23.2.4 56.6-29.2 73.4-41.4 132.7-96.3 142.8-104.7 173.4-128.7 5.8-4.5 9.2-11.5 9.2-18.9v-19c0-26.5-21.5-48-48-48H48C21.5 64 0 85.5 0 112v19c0 7.4 3.4 14.3 9.2 18.9 30.6 23.9 40.7 32.4 173.4 128.7 16.8 12.2 50.2 41.8 73.4 41.4z"/></svg><svg aria-hidden="true" data-prefix="fas" data-icon="phone" class="dsvg-inline--fa dfa-phone dfa-w-16" viewBox="0 0 512 512" id="phone" xmlns="http://www.w3.org/2000/svg"><path d="M493.4 24.6l-104-24c-11.3-2.6-22.9 3.3-27.5 13.9l-48 112c-4.2 9.8-1.4 21.3 6.9 28l60.6 49.6c-36 76.7-98.9 140.5-177.2 177.2l-49.6-60.6c-6.8-8.3-18.2-11.1-28-6.9l-112 48C3.9 366.5-2 378.1.6 389.4l24 104C27.1 504.2 36.7 512 48 512c256.1 0 464-207.5 464-464 0-11.2-7.7-20.9-18.6-23.4z"/></svg><svg viewBox="0 0 24 24" id="search" xmlns="http://www.w3.org/2000/svg"><path d="M21.71 20.29L18 16.61A9 9 0 1016.61 18l3.68 3.68a1 1 0 001.42 0 1 1 0 000-1.39zM11 18a7 7 0 117-7 7 7 0 01-7 7z"/></svg></svg>